<?xml version="1.0" encoding="utf-8"?>
<svg version="1.2" baseProfile="tiny" id="Layer_1" xmlns="http://www.w3.org/2000/svg" xmlns:xlink="http://www.w3.org/1999/xlink"
	 x="0px" y="0px" viewBox="0 0 500 500" overflow="visible" xml:space="preserve">
<g>
	<linearGradient id="SVGID_1_" gradientUnits="userSpaceOnUse" x1="98.6067" y1="249.7541" x2="402.1154" y2="249.7541">
		<stop  offset="0" style="stop-color:#2871FB"/>
		<stop  offset="1" style="stop-color:#11CCF8"/>
	</linearGradient>
	<path fill-rule="evenodd" fill="url(#SVGID_1_)" d="M261.9,448.2c58,22.3,145.5-60.8,139.9-152.8c-62.7-2.6-116.4,36.7-139.9,79.6
		v-80.6c69.2-5.9,123.5-63.9,123.5-134.6c0-74.6-60.5-135.1-135.1-135.1c-74.6,0-135.1,60.5-135.1,135.1
		c0,70.7,54.3,128.7,123.5,134.6V366c-27.8-40.1-81.3-74.8-139.9-72.4c-5.3,88,81.1,169.4,139.9,156.8v24.4h23.2L261.9,448.2
		L261.9,448.2z M301.8,120.7l-33.3,5.2c-1.7-4.2-3.1-7.1-4.5-8.7s-3.5-3.3-6.6-4.9v25.8c18.1,4.8,30.1,9.9,36.2,15.2
		c8,7.2,12,16.3,12,27.4c0,6.4-1.4,12.4-4.3,17.8c-2.9,5.4-6.6,9.9-11.1,13.6c-4.5,3.6-9.3,6.2-14.3,7.9s-11.2,2.6-18.5,2.9v16.8
		h-13v-16.8c-8.8-0.8-15.8-2.2-21.3-4.2c-5.4-2.1-10.1-4.9-14.1-8.5c-3.9-3.6-7-7.5-9.1-11.6c-2.1-4.2-3.7-9.2-4.8-15.1l36-4.2
		c1.1,5.9,2.5,10.1,4.4,12.7c1.8,2.6,4.8,4.9,9,6.9v-31.5c-12.1-3.3-20.6-6.2-25.6-8.6c-5-2.4-9.4-6.4-13.1-11.8
		c-3.7-5.4-5.5-11.9-5.5-19.7c0-10.6,3.7-19.4,11.1-26.6c7.4-7.1,18.5-11.1,33.1-11.8v-8.8h13v8.8c13.3,0.8,23.5,4,30.6,9.4
		C295,103.7,299.7,111.2,301.8,120.7L301.8,120.7z M244.4,111.9c-3.8,1.2-6.5,2.8-8,4.6s-2.2,4-2.2,6.5c0,2.6,0.8,4.9,2.3,6.8
		c1.5,1.9,4.2,3.6,7.9,4.9L244.4,111.9L244.4,111.9z M257.4,199.7c5.1-1.1,8.8-3,11.1-5.6c2.3-2.6,3.5-5.5,3.5-8.7
		c0-2.8-1-5.4-3-7.8c-2-2.3-5.9-4.5-11.6-6.6L257.4,199.7L257.4,199.7z M258.5,427.4c18.4-30.8,53.2-55.3,79.2-75.5
		c3.1-2.4,6.2-4.8,8.6-6.7c1.7-1.3,4.2-1,5.5,0.7c1.3,1.7,1,4.2-0.7,5.5c-3.2,2.5-5.9,4.6-8.6,6.7c-24.1,18.7-56.9,41.6-74.7,69.2
		L258.5,427.4L258.5,427.4z M147,340.7c-1.6-1.5-1.8-4.1-0.2-5.8c1.5-1.6,4.1-1.8,5.8-0.2c31.4,29.1,61.1,54.9,81.9,92.7h-9.3
		C204.9,392.2,176.6,368,147,340.7L147,340.7z"/>
</g>
</svg>
